<svg id="visual" viewBox="0 0 900 600" width="900" height="600" xmlns="http://www.w3.org/2000/svg" xmlns:xlink="http://www.w3.org/1999/xlink" version="1.1"><g stroke-width="1" stroke-linejoin="bevel"><path d="M429 299L515 279L447 257Z" fill="#944508" stroke="#944508"></path><path d="M515 279L515 222L447 257Z" fill="#bc641b" stroke="#bc641b"></path><path d="M535 407L580 281L515 279Z" fill="#b25c17" stroke="#b25c17"></path><path d="M515 279L580 281L515 222Z" fill="#e5852e" stroke="#e5852e"></path><path d="M573 176L496 183L515 222Z" fill="#a85412" stroke="#a85412"></path><path d="M515 222L496 183L447 257Z" fill="#f99638" stroke="#f99638"></path><path d="M429 299L442 401L515 279Z" fill="#f99638" stroke="#f99638"></path><path d="M447 257L352 297L429 299Z" fill="#d07425" stroke="#d07425"></path><path d="M429 299L381 401L442 401Z" fill="#bc641b" stroke="#bc641b"></path><path d="M343 191L352 297L447 257Z" fill="#da7c2a" stroke="#da7c2a"></path><path d="M496 183L472 166L447 257Z" fill="#bc641b" stroke="#bc641b"></path><path d="M442 401L535 407L515 279Z" fill="#bc641b" stroke="#bc641b"></path><path d="M644 331L597 236L580 281Z" fill="#9e4d0d" stroke="#9e4d0d"></path><path d="M580 281L597 236L515 222Z" fill="#9e4d0d" stroke="#9e4d0d"></path><path d="M496 183L493 95L472 166Z" fill="#9e4d0d" stroke="#9e4d0d"></path><path d="M352 297L381 401L429 299Z" fill="#bc641b" stroke="#bc641b"></path><path d="M442 401L531 438L535 407Z" fill="#a85412" stroke="#a85412"></path><path d="M381 401L437 435L442 401Z" fill="#ef8d33" stroke="#ef8d33"></path><path d="M597 236L573 176L515 222Z" fill="#da7c2a" stroke="#da7c2a"></path><path d="M472 166L381 167L447 257Z" fill="#a85412" stroke="#a85412"></path><path d="M437 435L531 438L442 401Z" fill="#a85412" stroke="#a85412"></path><path d="M630 384L644 331L580 281Z" fill="#e5852e" stroke="#e5852e"></path><path d="M381 167L343 191L447 257Z" fill="#da7c2a" stroke="#da7c2a"></path><path d="M290 350L362 421L381 401Z" fill="#d07425" stroke="#d07425"></path><path d="M381 401L362 421L437 435Z" fill="#ef8d33" stroke="#ef8d33"></path><path d="M290 350L381 401L352 297Z" fill="#a85412" stroke="#a85412"></path><path d="M343 191L305 247L352 297Z" fill="#b25c17" stroke="#b25c17"></path><path d="M630 384L580 281L535 407Z" fill="#944508" stroke="#944508"></path><path d="M597 236L666 227L573 176Z" fill="#c66c20" stroke="#c66c20"></path><path d="M305 247L293 285L352 297Z" fill="#944508" stroke="#944508"></path><path d="M586 471L630 384L535 407Z" fill="#da7c2a" stroke="#da7c2a"></path><path d="M293 285L290 350L352 297Z" fill="#9e4d0d" stroke="#9e4d0d"></path><path d="M573 176L493 95L496 183Z" fill="#f99638" stroke="#f99638"></path><path d="M472 166L432 75L381 167Z" fill="#a85412" stroke="#a85412"></path><path d="M381 167L329 133L343 191Z" fill="#bc641b" stroke="#bc641b"></path><path d="M586 471L651 392L630 384Z" fill="#9e4d0d" stroke="#9e4d0d"></path><path d="M630 384L651 392L644 331Z" fill="#f99638" stroke="#f99638"></path><path d="M644 331L666 227L597 236Z" fill="#ef8d33" stroke="#ef8d33"></path><path d="M573 176L597 92L493 95Z" fill="#a85412" stroke="#a85412"></path><path d="M732 335L666 227L644 331Z" fill="#9e4d0d" stroke="#9e4d0d"></path><path d="M553 526L586 471L531 438Z" fill="#e5852e" stroke="#e5852e"></path><path d="M531 438L586 471L535 407Z" fill="#f99638" stroke="#f99638"></path><path d="M454 538L531 438L437 435Z" fill="#b25c17" stroke="#b25c17"></path><path d="M277 463L385 489L362 421Z" fill="#9e4d0d" stroke="#9e4d0d"></path><path d="M362 421L385 489L437 435Z" fill="#da7c2a" stroke="#da7c2a"></path><path d="M384 79L329 133L381 167Z" fill="#ef8d33" stroke="#ef8d33"></path><path d="M343 191L251 218L305 247Z" fill="#944508" stroke="#944508"></path><path d="M305 247L251 218L293 285Z" fill="#da7c2a" stroke="#da7c2a"></path><path d="M493 95L432 75L472 166Z" fill="#d07425" stroke="#d07425"></path><path d="M432 75L384 79L381 167Z" fill="#da7c2a" stroke="#da7c2a"></path><path d="M329 133L251 218L343 191Z" fill="#b25c17" stroke="#b25c17"></path><path d="M206 310L241 372L290 350Z" fill="#a85412" stroke="#a85412"></path><path d="M659 128L597 92L573 176Z" fill="#d07425" stroke="#d07425"></path><path d="M517 0L436 0L432 75Z" fill="#bc641b" stroke="#bc641b"></path><path d="M384 79L334 94L329 133Z" fill="#944508" stroke="#944508"></path><path d="M329 133L212 169L251 218Z" fill="#da7c2a" stroke="#da7c2a"></path><path d="M206 310L290 350L293 285Z" fill="#9e4d0d" stroke="#9e4d0d"></path><path d="M290 350L277 463L362 421Z" fill="#a85412" stroke="#a85412"></path><path d="M385 489L454 538L437 435Z" fill="#c66c20" stroke="#c66c20"></path><path d="M454 538L553 526L531 438Z" fill="#ef8d33" stroke="#ef8d33"></path><path d="M708 439L714 390L651 392Z" fill="#944508" stroke="#944508"></path><path d="M666 227L659 128L573 176Z" fill="#e5852e" stroke="#e5852e"></path><path d="M241 372L277 463L290 350Z" fill="#bc641b" stroke="#bc641b"></path><path d="M378 600L423 600L454 538Z" fill="#9e4d0d" stroke="#9e4d0d"></path><path d="M708 439L651 392L586 471Z" fill="#d07425" stroke="#d07425"></path><path d="M651 392L714 390L644 331Z" fill="#944508" stroke="#944508"></path><path d="M666 227L732 200L659 128Z" fill="#bc641b" stroke="#bc641b"></path><path d="M714 390L732 335L644 331Z" fill="#e5852e" stroke="#e5852e"></path><path d="M251 218L206 310L293 285Z" fill="#c66c20" stroke="#c66c20"></path><path d="M241 372L223 424L277 463Z" fill="#d07425" stroke="#d07425"></path><path d="M732 335L732 200L666 227Z" fill="#d07425" stroke="#d07425"></path><path d="M704 514L708 439L586 471Z" fill="#944508" stroke="#944508"></path><path d="M714 390L830 349L732 335Z" fill="#da7c2a" stroke="#da7c2a"></path><path d="M498 600L581 552L553 526Z" fill="#ef8d33" stroke="#ef8d33"></path><path d="M553 526L581 552L586 471Z" fill="#944508" stroke="#944508"></path><path d="M177 366L223 424L241 372Z" fill="#a85412" stroke="#a85412"></path><path d="M246 66L212 169L329 133Z" fill="#b25c17" stroke="#b25c17"></path><path d="M251 218L173 244L206 310Z" fill="#b25c17" stroke="#b25c17"></path><path d="M198 544L300 525L277 463Z" fill="#bc641b" stroke="#bc641b"></path><path d="M277 463L300 525L385 489Z" fill="#bc641b" stroke="#bc641b"></path><path d="M454 538L498 600L553 526Z" fill="#ef8d33" stroke="#ef8d33"></path><path d="M714 87L669 77L659 128Z" fill="#c66c20" stroke="#c66c20"></path><path d="M659 128L669 77L597 92Z" fill="#b25c17" stroke="#b25c17"></path><path d="M517 0L432 75L493 95Z" fill="#ef8d33" stroke="#ef8d33"></path><path d="M517 0L493 95L597 92Z" fill="#b25c17" stroke="#b25c17"></path><path d="M432 75L397 0L384 79Z" fill="#944508" stroke="#944508"></path><path d="M384 79L397 0L334 94Z" fill="#ef8d33" stroke="#ef8d33"></path><path d="M334 94L246 66L329 133Z" fill="#bc641b" stroke="#bc641b"></path><path d="M632 0L517 0L597 92Z" fill="#d07425" stroke="#d07425"></path><path d="M436 0L397 0L432 75Z" fill="#a85412" stroke="#a85412"></path><path d="M212 169L173 244L251 218Z" fill="#bc641b" stroke="#bc641b"></path><path d="M206 310L177 366L241 372Z" fill="#a85412" stroke="#a85412"></path><path d="M173 244L169 278L206 310Z" fill="#bc641b" stroke="#bc641b"></path><path d="M169 278L177 366L206 310Z" fill="#da7c2a" stroke="#da7c2a"></path><path d="M223 424L185 479L277 463Z" fill="#944508" stroke="#944508"></path><path d="M423 600L498 600L454 538Z" fill="#944508" stroke="#944508"></path><path d="M378 600L454 538L385 489Z" fill="#bc641b" stroke="#bc641b"></path><path d="M750 116L714 87L659 128Z" fill="#bc641b" stroke="#bc641b"></path><path d="M669 77L632 0L597 92Z" fill="#e5852e" stroke="#e5852e"></path><path d="M581 552L704 514L586 471Z" fill="#c66c20" stroke="#c66c20"></path><path d="M708 439L796 451L714 390Z" fill="#da7c2a" stroke="#da7c2a"></path><path d="M655 600L704 514L581 552Z" fill="#f99638" stroke="#f99638"></path><path d="M285 0L246 66L334 94Z" fill="#a85412" stroke="#a85412"></path><path d="M212 169L135 136L173 244Z" fill="#944508" stroke="#944508"></path><path d="M300 525L378 600L385 489Z" fill="#b25c17" stroke="#b25c17"></path><path d="M704 514L721 506L708 439Z" fill="#d07425" stroke="#d07425"></path><path d="M853 182L750 116L732 200Z" fill="#d07425" stroke="#d07425"></path><path d="M732 200L750 116L659 128Z" fill="#ef8d33" stroke="#ef8d33"></path><path d="M831 222L732 200L732 335Z" fill="#e5852e" stroke="#e5852e"></path><path d="M498 600L595 600L581 552Z" fill="#da7c2a" stroke="#da7c2a"></path><path d="M704 514L720 600L721 506Z" fill="#9e4d0d" stroke="#9e4d0d"></path><path d="M671 0L632 0L669 77Z" fill="#c66c20" stroke="#c66c20"></path><path d="M671 0L669 77L721 0Z" fill="#ef8d33" stroke="#ef8d33"></path><path d="M177 366L185 479L223 424Z" fill="#e5852e" stroke="#e5852e"></path><path d="M300 525L264 600L378 600Z" fill="#da7c2a" stroke="#da7c2a"></path><path d="M86 480L185 479L177 366Z" fill="#d07425" stroke="#d07425"></path><path d="M397 0L285 0L334 94Z" fill="#da7c2a" stroke="#da7c2a"></path><path d="M721 0L669 77L714 87Z" fill="#a85412" stroke="#a85412"></path><path d="M595 600L655 600L581 552Z" fill="#c66c20" stroke="#c66c20"></path><path d="M780 485L708 439L721 506Z" fill="#ef8d33" stroke="#ef8d33"></path><path d="M780 485L796 451L708 439Z" fill="#e5852e" stroke="#e5852e"></path><path d="M796 451L830 349L714 390Z" fill="#c66c20" stroke="#c66c20"></path><path d="M802 507L780 485L721 506Z" fill="#ef8d33" stroke="#ef8d33"></path><path d="M852 284L831 222L732 335Z" fill="#c66c20" stroke="#c66c20"></path><path d="M800 80L721 0L714 87Z" fill="#bc641b" stroke="#bc641b"></path><path d="M198 544L264 600L300 525Z" fill="#944508" stroke="#944508"></path><path d="M185 479L198 544L277 463Z" fill="#da7c2a" stroke="#da7c2a"></path><path d="M43 320L94 343L169 278Z" fill="#b25c17" stroke="#b25c17"></path><path d="M169 278L94 343L177 366Z" fill="#b25c17" stroke="#b25c17"></path><path d="M246 66L135 136L212 169Z" fill="#a85412" stroke="#a85412"></path><path d="M155 44L135 136L246 66Z" fill="#ef8d33" stroke="#ef8d33"></path><path d="M900 270L852 284L900 397Z" fill="#a85412" stroke="#a85412"></path><path d="M830 349L852 284L732 335Z" fill="#c66c20" stroke="#c66c20"></path><path d="M43 320L169 278L46 194Z" fill="#9e4d0d" stroke="#9e4d0d"></path><path d="M169 600L195 600L198 544Z" fill="#9e4d0d" stroke="#9e4d0d"></path><path d="M800 80L714 87L750 116Z" fill="#da7c2a" stroke="#da7c2a"></path><path d="M853 182L800 80L750 116Z" fill="#f99638" stroke="#f99638"></path><path d="M853 182L732 200L831 222Z" fill="#9e4d0d" stroke="#9e4d0d"></path><path d="M780 485L802 507L796 451Z" fill="#d07425" stroke="#d07425"></path><path d="M796 451L900 397L830 349Z" fill="#f99638" stroke="#f99638"></path><path d="M720 600L802 507L721 506Z" fill="#c66c20" stroke="#c66c20"></path><path d="M285 0L211 0L246 66Z" fill="#944508" stroke="#944508"></path><path d="M655 600L720 600L704 514Z" fill="#b25c17" stroke="#b25c17"></path><path d="M900 207L853 182L831 222Z" fill="#a85412" stroke="#a85412"></path><path d="M211 0L155 44L246 66Z" fill="#d07425" stroke="#d07425"></path><path d="M129 549L198 544L185 479Z" fill="#b25c17" stroke="#b25c17"></path><path d="M198 544L195 600L264 600Z" fill="#da7c2a" stroke="#da7c2a"></path><path d="M900 397L852 284L830 349Z" fill="#e5852e" stroke="#e5852e"></path><path d="M852 284L900 270L831 222Z" fill="#e5852e" stroke="#e5852e"></path><path d="M853 182L900 100L800 80Z" fill="#c66c20" stroke="#c66c20"></path><path d="M86 480L129 549L185 479Z" fill="#944508" stroke="#944508"></path><path d="M94 343L86 480L177 366Z" fill="#944508" stroke="#944508"></path><path d="M46 194L169 278L173 244Z" fill="#9e4d0d" stroke="#9e4d0d"></path><path d="M94 343L0 407L86 480Z" fill="#da7c2a" stroke="#da7c2a"></path><path d="M46 194L173 244L135 136Z" fill="#9e4d0d" stroke="#9e4d0d"></path><path d="M129 549L169 600L198 544Z" fill="#9e4d0d" stroke="#9e4d0d"></path><path d="M900 270L900 207L831 222Z" fill="#b25c17" stroke="#b25c17"></path><path d="M211 0L150 0L155 44Z" fill="#bc641b" stroke="#bc641b"></path><path d="M61 137L46 194L135 136Z" fill="#d07425" stroke="#d07425"></path><path d="M61 137L135 136L41 67Z" fill="#9e4d0d" stroke="#9e4d0d"></path><path d="M900 440L796 451L900 495Z" fill="#ef8d33" stroke="#ef8d33"></path><path d="M900 440L900 397L796 451Z" fill="#b25c17" stroke="#b25c17"></path><path d="M41 67L135 136L155 44Z" fill="#a85412" stroke="#a85412"></path><path d="M900 207L900 164L853 182Z" fill="#e5852e" stroke="#e5852e"></path><path d="M800 80L842 0L721 0Z" fill="#d07425" stroke="#d07425"></path><path d="M900 495L796 451L802 507Z" fill="#ef8d33" stroke="#ef8d33"></path><path d="M86 480L76 534L129 549Z" fill="#ef8d33" stroke="#ef8d33"></path><path d="M129 549L100 600L169 600Z" fill="#ef8d33" stroke="#ef8d33"></path><path d="M0 502L76 534L86 480Z" fill="#e5852e" stroke="#e5852e"></path><path d="M900 164L900 100L853 182Z" fill="#c66c20" stroke="#c66c20"></path><path d="M900 100L842 0L800 80Z" fill="#b25c17" stroke="#b25c17"></path><path d="M854 600L900 495L802 507Z" fill="#ef8d33" stroke="#ef8d33"></path><path d="M0 225L0 267L46 194Z" fill="#ef8d33" stroke="#ef8d33"></path><path d="M46 194L0 267L43 320Z" fill="#da7c2a" stroke="#da7c2a"></path><path d="M43 320L0 407L94 343Z" fill="#bc641b" stroke="#bc641b"></path><path d="M150 0L98 0L155 44Z" fill="#da7c2a" stroke="#da7c2a"></path><path d="M0 128L0 225L46 194Z" fill="#944508" stroke="#944508"></path><path d="M0 128L46 194L61 137Z" fill="#ef8d33" stroke="#ef8d33"></path><path d="M76 534L100 600L129 549Z" fill="#944508" stroke="#944508"></path><path d="M0 267L0 407L43 320Z" fill="#e5852e" stroke="#e5852e"></path><path d="M76 534L0 600L100 600Z" fill="#da7c2a" stroke="#da7c2a"></path><path d="M98 0L41 67L155 44Z" fill="#bc641b" stroke="#bc641b"></path><path d="M0 407L0 416L86 480Z" fill="#d07425" stroke="#d07425"></path><path d="M720 600L854 600L802 507Z" fill="#c66c20" stroke="#c66c20"></path><path d="M41 67L0 128L61 137Z" fill="#ef8d33" stroke="#ef8d33"></path><path d="M0 416L0 502L86 480Z" fill="#c66c20" stroke="#c66c20"></path><path d="M900 100L900 0L842 0Z" fill="#f99638" stroke="#f99638"></path><path d="M0 0L0 81L41 67Z" fill="#f99638" stroke="#f99638"></path><path d="M41 67L0 81L0 128Z" fill="#c66c20" stroke="#c66c20"></path><path d="M854 600L900 600L900 495Z" fill="#da7c2a" stroke="#da7c2a"></path><path d="M98 0L0 0L41 67Z" fill="#ef8d33" stroke="#ef8d33"></path><path d="M0 502L0 600L76 534Z" fill="#e5852e" stroke="#e5852e"></path></g></svg>